<svg xmlns="http://www.w3.org/2000/svg" xmlns:xlink="http://www.w3.org/1999/xlink" width="20" height="18" viewBox="0 0 20 18"><defs><path id="a" d="M1291.05 5872h11.9c1.13 0 2.05.92 2.05 2.05v11.9c0 1.13-.92 2.05-2.05 2.05h-11.9a2.06 2.06 0 0 1-2.05-2.05v-11.9c0-1.13.92-2.05 2.05-2.05zm9.6 1.78c-.4 0-.71.32-.71.72v1.72c0 .4.32.72.72.72h1.8c.4 0 .72-.32.72-.72v-1.72c0-.4-.32-.72-.72-.72zm2.54 4.99h-1.4c.13.43.2.9.2 1.37a4.9 4.9 0 0 1-4.97 4.82 4.9 4.9 0 0 1-4.98-4.82c0-.48.07-.94.2-1.37h-1.46v6.76c0 .35.28.63.63.63h11.15c.35 0 .63-.28.63-.63zm-6.17-1.92a3.16 3.16 0 0 0-3.22 3.12 3.17 3.17 0 0 0 3.22 3.11c1.77 0 3.2-1.4 3.2-3.11a3.16 3.16 0 0 0-3.2-3.12z"/></defs><use xlink:href="#a" transform="translate(-1287 -5871)"/></svg>