<svg xmlns="http://www.w3.org/2000/svg" xmlns:xlink="http://www.w3.org/1999/xlink" width="21" height="25" viewBox="0 0 21 25"><defs><path id="a" d="M1340.23 5882.1h-1.19v-.7c0-.32.26-.58.56-.58h.08c.3 0 .56.26.56.57zm-3.9-1.05v3.4c0 .26-.25.46-.55.46-.3 0-.55-.2-.55-.45v-3.41c0-.26.25-.46.55-.46.3 0 .55.2.55.46zm6.67-2.37v6.49a2.9 2.9 0 0 1-2.94 2.83h-12.11a2.9 2.9 0 0 1-2.95-2.83v-6.49a2.9 2.9 0 0 1 2.95-2.83h12.1a2.9 2.9 0 0 1 2.95 2.83zm-14.25 7.2v-6.84h1.5v-1.01h-4v.99h1.25v6.85zm3.25-5.82v3.65c0 .53.03.79 0 .88-.1.29-.56.59-.74.03-.03-.1 0-.39 0-.89v-3.67H1330v4.77c.04.33.03.72.33.94.56.41 1.64-.06 1.91-.65v.75h1v-5.81zm5.26 4.18v-3.04c0-1.16-.86-1.85-2.01-.91v-2.26H1334v7.8l1.03-.02.09-.49c1.31 1.23 2.14.39 2.14-1.08zm3.91-.4h-.93v.66c0 .29-.24.52-.52.52h-.18a.52.52 0 0 1-.52-.52v-1.4h2.15v-.82c0-.6-.01-1.2-.06-1.55-.16-1.1-1.66-1.26-2.41-.7-.24.17-.42.4-.53.71-.1.32-.16.74-.16 1.29v1.8c0 3.02 3.6 2.6 3.16 0zm-4.93-10.34l-.02-1.04v-4.08h1.14v4.7c0 .26.2.47.46.47.25 0 .46-.21.46-.47v-4.7h1.1v6.04h-1.4l.02-.5c-.1.2-.2.36-.35.46-.14.1-.3.15-.48.15a.86.86 0 0 1-.5-.14.86.86 0 0 1-.31-.39 1.8 1.8 0 0 1-.12-.5zm-4.1-2.91c0-.58.04-1.04.13-1.36.1-.33.27-.59.52-.79.24-.2.56-.3.94-.3.33 0 .6.07.83.2.23.13.41.29.54.5.12.2.21.4.26.62.04.22.07.55.07 1v1.52c0 .56-.03.97-.07 1.24-.04.26-.13.5-.27.73-.14.23-.32.4-.54.5-.22.11-.47.16-.76.16-.32 0-.58-.04-.8-.13a1.1 1.1 0 0 1-.52-.42 1.87 1.87 0 0 1-.26-.68 6.64 6.64 0 0 1-.08-1.2v-1.6zm1.08 2.4c0 .34.25.62.56.62.3 0 .55-.28.55-.62v-3.22c0-.34-.25-.62-.55-.62-.3 0-.56.28-.56.62zm-3.86-3.01l-1.65-3.98h1.42l.84 2.96.83-2.95h1.44l-1.56 3.97v4.63h-1.32z"/></defs><use xlink:href="#a" transform="translate(-1324 -5864)"/></svg>