<svg xmlns="http://www.w3.org/2000/svg" xmlns:xlink="http://www.w3.org/1999/xlink" width="24" height="17" viewBox="0 0 24 17"><defs><path id="xrova" d="M1416.35 5872.98v-1.4h5.5v1.4zm-3.67 5.74c.36.57.53 1.25.53 2.05a4.15 4.15 0 0 1-1.57 3.34 3.7 3.7 0 0 1-1.55.7c-.6.13-1.23.19-1.93.19H1402v-14h6.6c1.67.03 2.85.52 3.55 1.5.42.59.63 1.3.63 2.13 0 .86-.21 1.54-.63 2.06-.24.3-.59.56-1.05.8.7.26 1.23.67 1.58 1.23zm-7.52-2.2h2.9c.59 0 1.07-.12 1.44-.35.37-.23.55-.64.55-1.23 0-.65-.24-1.08-.73-1.29a5.06 5.06 0 0 0-1.62-.22h-2.54zm5.17 4.05c0-.72-.29-1.23-.87-1.5a3.36 3.36 0 0 0-1.37-.23h-2.93v3.73h2.89c.6 0 1.05-.08 1.38-.25.6-.3.9-.88.9-1.75zm13.57-2.27c.07.45.1 1.12.09 1.99h-7.14c.04 1 .38 1.71 1.03 2.11.38.26.86.38 1.4.38.6 0 1.07-.15 1.43-.46.2-.16.38-.4.53-.69h2.61c-.07.6-.38 1.2-.95 1.82a4.7 4.7 0 0 1-3.68 1.46c-1.3 0-2.46-.41-3.46-1.23-.99-.83-1.49-2.17-1.49-4.02 0-1.74.45-3.07 1.35-4a4.67 4.67 0 0 1 3.5-1.4c.86 0 1.62.16 2.31.48.68.31 1.25.8 1.7 1.48.4.6.65 1.29.77 2.08zm-3.26-1.33a2.2 2.2 0 0 0-1.51-.54 2 2 0 0 0-1.53.58c-.37.38-.6.9-.69 1.55h4.42a2.21 2.21 0 0 0-.69-1.59z"/></defs><g><g transform="translate(-1401 -5869)"><use xlink:href="#xrova"/></g></g></svg>