<svg xmlns="http://www.w3.org/2000/svg" xmlns:xlink="http://www.w3.org/1999/xlink" width="12" height="21" viewBox="0 0 12 21"><defs><path id="h2sfa" d="M1258.66 5870h-2.16c-2.42 0-3.99 1.74-3.99 4.43v2.04h-2.17c-.19 0-.34.17-.34.37v2.96c0 .2.15.37.34.37h2.17v7.46c0 .2.15.37.34.37h2.83c.19 0 .34-.16.34-.37v-7.46h2.54c.19 0 .34-.17.34-.37v-2.96c0-.1-.04-.2-.1-.26a.33.33 0 0 0-.24-.1h-2.54v-1.74c0-.83.18-1.25 1.19-1.25h1.45c.19 0 .34-.17.34-.37v-2.75c0-.2-.15-.37-.34-.37z"/></defs><g><g transform="translate(-1248 -5868)"><use xlink:href="#h2sfa"/></g></g></svg>